<svg width="137" height="52" viewBox="0 0 137 52" fill="none" xmlns="http://www.w3.org/2000/svg">
<path d="M75.9669 36.3353L79.6567 29.8524L81.3614 32.734L83.359 36.1095L80.019 42.0665C77.3897 46.7551 74.1557 49.6465 70.8839 50.6824C67.6419 51.7087 64.277 50.9413 61.2675 48.1284C61.1406 48.0097 60.9284 47.759 60.6302 47.3611C60.3381 46.9714 59.9806 46.4638 59.5658 45.8509C58.7365 44.6255 57.6871 42.992 56.4893 41.0652C54.0941 37.2123 51.1126 32.1982 48.1235 26.9539C44.4017 20.4242 41.5165 15.6018 39.3862 12.3659C38.3219 10.7493 37.4389 9.51769 36.7291 8.66425C36.3747 8.23803 36.0548 7.89574 35.77 7.64459C35.4975 7.40435 35.2082 7.2028 34.9146 7.13013C34.5842 7.04842 33.9582 6.98982 33.1595 6.94524C32.3429 6.89965 31.2992 6.86675 30.1018 6.84745C27.7065 6.80885 24.6837 6.82451 21.6101 6.90384L10.4549 7.19085L9.61796 7.21238L10.0338 7.93905L20.2295 25.7535C25.0141 34.1137 27.6245 38.6001 29.3833 40.9895C30.2631 42.1847 30.966 42.9074 31.6631 43.3212C32.384 43.7493 33.0522 43.8196 33.7764 43.8196C34.436 43.8196 35.0285 43.7671 35.5916 43.5774C36.1621 43.3852 36.6714 43.0629 37.1852 42.5672C38.1849 41.6028 39.2502 39.9278 40.8764 37.1384C41.9028 35.3772 42.9261 33.7484 43.7463 32.5447C44.1571 31.9418 44.5126 31.452 44.7894 31.1072C44.9284 30.934 45.0412 30.8054 45.1267 30.7196C45.1302 30.716 45.1337 30.7126 45.137 30.7093C45.1504 30.7178 45.1653 30.7278 45.1817 30.7394C45.3227 30.8394 45.5104 31.0161 45.7317 31.2724C46.1705 31.7805 46.6835 32.5334 47.1548 33.4068L48.7823 36.421L45.3757 42.219C41.9295 48.082 37.7146 51.2319 33.7704 51.2319C32.1016 51.2319 30.0576 50.4524 28.1285 49.1521C26.207 47.8571 24.4586 46.0847 23.3677 44.1796C11.7536 23.8962 5.83585 13.5293 3.06451 7.98475C1.67078 5.19636 1.10805 3.69296 0.988398 2.78569C0.931207 2.35204 0.981084 2.09052 1.06527 1.89944C1.14674 1.71452 1.27778 1.55298 1.48326 1.34344C1.5427 1.32812 1.63576 1.30981 1.76808 1.28994C2.03637 1.24965 2.42197 1.20934 2.9179 1.1702C3.90721 1.09213 5.30202 1.02127 7.00282 0.961558C10.4026 0.842186 15.0052 0.768013 19.9887 0.768013C28.7107 0.768013 33.2355 0.791065 35.8988 1.07872C37.2221 1.22167 38.0479 1.4268 38.684 1.70847C39.3166 1.98856 39.7931 2.35746 40.4126 2.8891C40.5522 3.00896 40.7802 3.26138 41.0972 3.66327C41.4077 4.0569 41.785 4.56969 42.2205 5.18928C43.0911 6.42796 44.1845 8.07887 45.4265 10.0264C47.9099 13.9206 50.9786 18.9872 54.0322 24.2851C59.2598 33.3553 62.0975 38.2068 63.9732 40.7842C64.9104 42.0721 65.6434 42.8447 66.3548 43.286C67.0942 43.7447 67.768 43.8196 68.4982 43.8196C69.1671 43.8196 69.7686 43.7675 70.3434 43.5622C70.9258 43.3542 71.4444 43.0023 71.9748 42.4569C73.0078 41.3949 74.1522 39.5229 75.9669 36.3353Z" fill="#00FFC2"/>
<path d="M45.0533 30.6654L45.0517 30.665M45.2274 30.6295C45.2274 30.6295 45.2265 30.6302 45.2244 30.6315M113.405 6.91467C117.02 6.83889 120.308 6.81457 122.695 6.83665C123.888 6.84768 124.86 6.87033 125.537 6.90434C125.874 6.92124 126.148 6.94144 126.343 6.96598C126.437 6.97781 126.532 6.993 126.613 7.01509C126.649 7.02505 126.713 7.04455 126.779 7.0821L126.78 7.08273C126.811 7.10006 127.048 7.23531 127.048 7.5363C127.048 7.61638 127.03 7.68216 127.023 7.70445C127.014 7.7374 127.002 7.7689 126.992 7.79565C126.971 7.84974 126.943 7.91209 126.912 7.97828C126.849 8.11211 126.759 8.28894 126.648 8.5005C126.424 8.92505 126.102 9.50888 125.708 10.2081C124.918 11.6076 123.83 13.4808 122.634 15.4908C120.246 19.5039 115.612 27.4625 112.336 33.1765C109.932 37.3706 108.306 40.0153 107.021 41.6424C105.73 43.2759 104.715 43.973 103.514 44.1188C102.736 44.2133 102 44.2732 101.189 43.855C100.412 43.4539 99.6239 42.6444 98.5889 41.2053C96.5119 38.3172 93.243 32.5999 86.9357 21.5055C84.2636 16.8064 81.5577 12.3178 79.3517 8.87321C78.2485 7.15043 77.2727 5.69265 76.4903 4.60169C76.0989 4.05592 75.7589 3.60612 75.4775 3.26256C75.1889 2.91021 74.9839 2.69695 74.8606 2.60015C73.3072 1.38173 70.9431 1.06659 68.4982 1.07873C66.054 1.09087 63.6319 1.42952 62.0544 2.66746C61.4038 3.17767 60.4496 4.24045 59.4314 5.57288C58.4212 6.89469 57.3757 8.44535 56.5403 9.902C55.8022 11.1886 55.253 12.1619 54.8627 12.947C54.4716 13.734 54.2567 14.3005 54.168 14.7755C54.0005 15.6732 54.2611 16.3262 54.9976 17.7464C55.4098 18.5419 55.8707 19.317 56.2787 19.9222C56.483 20.2252 56.6701 20.4799 56.8281 20.6711C56.886 20.7412 56.9359 20.7977 56.9779 20.8425C57.0191 20.8071 57.0681 20.7618 57.1251 20.7049C57.388 20.4423 57.7387 20.0161 58.1549 19.4469C58.9831 18.3142 60.0274 16.675 61.0841 14.8041C62.9761 11.4542 64.4662 9.27051 65.8658 8.06991C66.5757 7.46093 67.2854 7.08396 68.0338 6.9491C68.7844 6.81385 69.5248 6.93098 70.2794 7.22723C70.4362 7.28877 70.5689 7.4154 70.6522 7.49973C70.7546 7.60341 70.8705 7.73763 70.9966 7.89457C71.2498 8.20974 71.5692 8.64764 71.9439 9.18914C72.6945 10.274 73.6857 11.8017 74.8461 13.6573C77.1679 17.3701 80.1781 22.413 83.317 27.8911C86.4508 33.3601 89.5282 38.48 91.9609 42.3222C93.1777 44.2439 94.2305 45.8419 95.0471 47.0028C95.4557 47.5838 95.8016 48.0501 96.0768 48.3908C96.3682 48.7515 96.5394 48.9184 96.6041 48.9609C100.023 51.1952 104.191 51.5215 107.717 49.8518C109.069 49.2124 110.327 48.1017 112.652 44.6794C114.978 41.2579 118.324 35.5998 123.876 25.9534C128.903 17.2217 132.078 11.5204 133.907 7.83624C134.823 5.99174 135.391 4.67305 135.687 3.74259C135.836 3.27724 135.909 2.92822 135.93 2.67069C135.95 2.40935 135.913 2.28548 135.886 2.23413C135.731 1.94187 135.537 1.72248 135.092 1.5344C134.611 1.33084 133.84 1.16775 132.529 1.04928C129.914 0.813045 125.356 0.768013 117.163 0.768013L99 0.999994L96.137 3.25392C94.4972 4.62981 92.0074 7.96811 90.6431 10.6537C90.0185 11.883 89.5596 12.7914 89.2442 13.5225C88.9289 14.2536 88.7747 14.7693 88.7362 15.2135C88.6609 16.0816 89.0083 16.7862 89.9189 18.4734C90.4067 19.3766 90.9047 20.1898 91.3112 20.7707C91.4845 21.0183 91.6356 21.2157 91.7579 21.3575C91.8021 21.3002 91.8517 21.2337 91.9067 21.1576C92.1617 20.805 92.5035 20.2881 92.9094 19.6413C93.7197 18.35 94.7695 16.5665 95.8619 14.6039L99.8459 7.44748L99.9855 7.19683L100.272 7.1908L113.405 6.91467ZM75.9669 36.3353L79.6567 29.8524L81.3614 32.734L83.359 36.1095L80.019 42.0665C77.3897 46.7551 74.1557 49.6465 70.8839 50.6824C67.6419 51.7087 64.277 50.9413 61.2675 48.1284C61.1406 48.0097 60.9284 47.759 60.6302 47.3611C60.3381 46.9714 59.9806 46.4638 59.5658 45.8509C58.7365 44.6255 57.6871 42.992 56.4893 41.0652C54.0941 37.2123 51.1126 32.1982 48.1235 26.9539C44.4017 20.4242 41.5165 15.6018 39.3862 12.3659C38.3219 10.7493 37.4389 9.51769 36.7291 8.66425C36.3747 8.23803 36.0548 7.89574 35.77 7.64459C35.4975 7.40435 35.2082 7.2028 34.9146 7.13013C34.5842 7.04842 33.9582 6.98982 33.1595 6.94524C32.3429 6.89965 31.2992 6.86675 30.1018 6.84745C27.7065 6.80885 24.6837 6.82451 21.6101 6.90384L10.4549 7.19085L9.61796 7.21238L10.0338 7.93905L20.2295 25.7535C25.0141 34.1137 27.6245 38.6001 29.3833 40.9895C30.2631 42.1847 30.966 42.9074 31.6631 43.3212C32.384 43.7493 33.0522 43.8196 33.7764 43.8196C34.436 43.8196 35.0285 43.7671 35.5916 43.5774C36.1621 43.3852 36.6714 43.0629 37.1852 42.5672C38.1849 41.6028 39.2502 39.9278 40.8764 37.1384C41.9028 35.3772 42.9261 33.7484 43.7463 32.5447C44.1571 31.9418 44.5126 31.452 44.7894 31.1072C44.9284 30.934 45.0412 30.8054 45.1267 30.7196C45.1302 30.716 45.1337 30.7126 45.137 30.7093C45.1504 30.7178 45.1653 30.7278 45.1817 30.7394C45.3227 30.8394 45.5104 31.0161 45.7317 31.2724C46.1705 31.7805 46.6835 32.5334 47.1548 33.4068L48.7823 36.421L45.3757 42.219C41.9295 48.082 37.7146 51.2319 33.7704 51.2319C32.1016 51.2319 30.0576 50.4524 28.1285 49.1521C26.207 47.8571 24.4586 46.0847 23.3677 44.1796C11.7536 23.8962 5.83585 13.5293 3.06451 7.98475C1.67078 5.19636 1.10805 3.69296 0.988398 2.78569C0.931207 2.35204 0.981084 2.09052 1.06527 1.89944C1.14674 1.71452 1.27778 1.55298 1.48326 1.34344C1.5427 1.32812 1.63576 1.30981 1.76808 1.28994C2.03637 1.24965 2.42197 1.20934 2.9179 1.1702C3.90721 1.09213 5.30202 1.02127 7.00282 0.961558C10.4026 0.842186 15.0052 0.768013 19.9887 0.768013C28.7107 0.768013 33.2355 0.791065 35.8988 1.07872C37.2221 1.22167 38.0479 1.4268 38.684 1.70847C39.3166 1.98856 39.7931 2.35746 40.4126 2.8891C40.5522 3.00896 40.7802 3.26138 41.0972 3.66327C41.4077 4.0569 41.785 4.56969 42.2205 5.18928C43.0911 6.42796 44.1845 8.07887 45.4265 10.0264C47.9099 13.9206 50.9786 18.9872 54.0322 24.2851C59.2598 33.3553 62.0975 38.2068 63.9732 40.7842C64.9104 42.0721 65.6434 42.8447 66.3548 43.286C67.0942 43.7447 67.768 43.8196 68.4982 43.8196C69.1671 43.8196 69.7686 43.7675 70.3434 43.5622C70.9258 43.3542 71.4444 43.0023 71.9748 42.4569C73.0078 41.3949 74.1522 39.5229 75.9669 36.3353Z" stroke="#00FFC2" stroke-width="2" stroke-linecap="round" stroke-linejoin="round"/>
</svg>
