<svg width="138" height="52" viewBox="0 0 138 52" fill="none" xmlns="http://www.w3.org/2000/svg">
<g style="mix-blend-mode:hard-light">
<g filter="url(#filter0_i_1131_284)">
<path fill-rule="evenodd" clip-rule="evenodd" d="M41.2827 3.18368C42.7198 4.38161 48.8981 13.791 55.0128 24.0946C65.4855 41.7425 66.2993 42.8279 69.0485 42.8279C71.6359 42.8279 72.4328 42.0319 76.0842 35.8028L80.201 28.7777L82.3448 32.2975L84.4895 35.8172L81.0079 41.8482C75.6743 51.0856 67.7265 53.5295 61.4748 47.8542C60.1766 46.6755 54.2198 37.368 48.2351 27.1702C40.7924 14.4881 36.7173 8.47535 35.3377 8.14366C34.2291 7.87735 28.3 7.78408 22.1635 7.93791L11.006 8.21672L21.2038 25.5223C30.7912 41.7925 31.5762 42.8279 34.3194 42.8279C36.8652 42.8279 37.7167 42.0299 40.9889 36.5787C43.0513 33.1416 45.1078 30.2102 45.5593 30.0641C46.0099 29.9179 47.1721 31.2245 48.1408 32.9676L49.9024 36.1364L46.3523 42.0049C42.8747 47.7514 38.5276 51 34.3135 51C30.7008 51 25.7454 47.7562 23.4746 43.9047C0.251419 4.51333 -0.241843 3.55478 1.72725 1.64732C2.0905 1.29448 10.5514 1.00606 20.5289 1.00606C37.945 1.00606 38.7737 1.09259 41.2827 3.18368ZM75.7209 2.88949C77.0806 3.9259 82.5721 12.2547 87.9245 21.3969C100.56 42.9827 100.932 43.4855 104.012 43.1221C106.025 42.8846 107.647 40.8907 112.462 32.733C115.739 27.1808 120.376 19.4471 122.766 15.5456C125.156 11.6452 127.111 8.28018 127.111 8.06674C127.111 7.85427 121.2 7.80139 113.975 7.94849L102.021 10.1232L96.8549 15.1688C94.6635 18.9923 92.6368 22.1295 92.351 22.1391C92.0662 22.1487 91.0231 20.7018 90.0336 18.9222C88.255 15.7216 88.263 15.6331 90.7521 10.8751C92.1366 8.22826 93.3125 5.79121 95.0196 4.40003L99.0204 2.68855L117.724 1.00606C134.093 1.00606 136.068 1.17911 136.892 2.68855C137.605 3.99608 134.925 9.23872 124.872 26.2001C113.77 44.9325 111.444 48.2551 108.49 49.6127C104.798 51.3105 100.445 50.9731 96.8867 48.7147C95.7642 48.0013 89.711 38.7169 83.4365 28.0816C77.162 17.4464 71.4066 8.50804 70.6474 8.21865C67.8813 7.16397 65.8566 8.85126 62.0683 15.3659C59.9414 19.0231 57.8483 21.8035 57.4165 21.5449C56.9838 21.2853 55.9417 19.7846 55.1011 18.2088C53.6382 15.4687 53.7066 15.114 56.6543 10.1232C58.3495 7.25242 60.8873 4.02685 62.2946 2.95486C65.679 0.375368 72.3792 0.343641 75.7209 2.88949Z" fill="#00FF9E"/>
</g>
<path d="M81.4409 42.0982L84.9226 36.0672C85.014 35.9088 85.0117 35.7132 84.9165 35.557L82.7718 32.0373L80.628 28.5176C80.5365 28.3673 80.3727 28.2762 80.1968 28.2777C80.0208 28.2792 79.8586 28.3731 79.7696 28.5249L75.6528 35.55C73.8164 38.6828 72.7379 40.375 71.814 41.2974C71.3663 41.7445 70.9723 41.9915 70.562 42.1338C70.1439 42.2789 69.6739 42.3279 69.0485 42.3279C68.4024 42.3279 67.9413 42.2646 67.4263 41.9543C66.8849 41.6281 66.2452 41.0048 65.3271 39.7794C63.4913 37.3294 60.6869 32.6766 55.4427 23.8394C52.3822 18.6823 49.3049 13.7475 46.8116 9.9501C45.5652 8.05183 44.4625 6.43443 43.5795 5.21431C43.1382 4.60449 42.7491 4.09028 42.4226 3.68831C42.1027 3.29442 41.8228 2.98301 41.6028 2.79959C40.9677 2.27021 40.3999 1.83384 39.6281 1.50192C38.8603 1.17172 37.9214 0.957507 36.5481 0.813438C33.8172 0.526951 29.2216 0.506061 20.5289 0.506061C15.5361 0.506061 10.9206 0.578215 7.50566 0.694667C5.79908 0.752864 4.38749 0.822281 3.37693 0.899733C2.87289 0.938364 2.4604 0.979596 2.158 1.0237C2.00798 1.04558 1.87403 1.06972 1.76516 1.09746C1.71108 1.11124 1.65292 1.12846 1.59751 1.15084C1.55326 1.16872 1.46131 1.20876 1.37933 1.2882C1.12841 1.53126 0.859978 1.81045 0.688479 2.1885C0.511227 2.57923 0.457759 3.02616 0.53332 3.58261C0.67874 4.65355 1.32354 6.25584 2.70921 8.94835C5.49776 14.3668 11.4374 24.4716 23.0438 44.1586M81.4409 42.0982L81.0079 41.8482M81.4409 42.0982C78.7349 46.7847 75.3275 49.816 71.7326 50.9214C68.1113 52.0349 64.3812 51.1679 61.1387 48.2244C60.9406 48.0446 60.6823 47.7388 60.3828 47.3508C60.0772 46.9547 59.7095 46.4473 59.2898 45.845C58.4501 44.6398 57.3928 43.0412 56.1913 41.1639C53.7876 37.4087 50.7989 32.5267 47.8038 27.4233C44.0838 21.0844 41.211 16.4221 39.0989 13.3061C38.0419 11.7468 37.1828 10.5857 36.5085 9.79828C36.171 9.4041 35.8883 9.11369 35.6575 8.91606C35.415 8.70839 35.2747 8.64279 35.2209 8.62983M35.2209 8.62983C34.9957 8.57572 34.4635 8.52104 33.6474 8.47679C32.8486 8.43348 31.8187 8.4018 30.6283 8.38317C28.248 8.34591 25.2385 8.36098 22.176 8.43775L11.8684 8.69533M35.2209 8.62983L11.8684 8.69533M23.0438 44.1586L23.4385 43.926M23.0438 44.1586C24.2249 46.1618 26.0906 47.9885 28.117 49.315C30.1364 50.6369 32.3741 51.5 34.3135 51.5C38.7894 51.5 43.2684 48.0665 46.7801 42.2638L50.3303 36.3952C50.4231 36.2417 50.4266 36.0503 50.3395 35.8935L48.5778 32.7247C48.0801 31.8291 47.5271 31.0348 47.0294 30.4751C46.7825 30.1974 46.5343 29.9605 46.3003 29.7993C46.1834 29.7187 46.0534 29.6454 45.9155 29.6002C45.7796 29.5557 45.5971 29.5263 45.4054 29.5884C45.2993 29.6227 45.2128 29.6811 45.1559 29.7238C45.0926 29.7714 45.0296 29.8277 44.9689 29.8869C44.8472 30.0055 44.7089 30.1607 44.5593 30.3417C44.2588 30.7053 43.8865 31.2048 43.4689 31.8001C42.6323 32.9925 41.5961 34.5949 40.5602 36.3213C38.9145 39.063 37.9191 40.5588 37.0399 41.3827C36.6143 41.7814 36.2288 42.0091 35.8199 42.1428C35.4035 42.2791 34.9333 42.3279 34.3194 42.3279C33.6705 42.3279 33.2097 42.2664 32.7108 41.9788C32.1896 41.6782 31.5835 41.1049 30.7267 39.9744C29.0113 37.7111 26.4365 33.4176 21.6345 25.2685M11.8684 8.69533L21.6345 25.2685M21.6345 25.2685L21.2038 25.5223M88.356 21.1442C85.676 16.5668 82.9604 12.1914 80.7429 8.82828C79.6344 7.1472 78.6479 5.71518 77.8509 4.63588C77.4526 4.0965 77.0987 3.64107 76.7984 3.285C76.5053 2.93746 76.2409 2.6571 76.0239 2.49176C74.2365 1.13001 71.6047 0.487715 69.0214 0.500178C66.4373 0.512645 63.7976 1.18074 61.9915 2.5572C61.2344 3.1339 60.2158 4.25088 59.1894 5.55531C58.1549 6.87011 57.0838 8.41246 56.2238 9.86895C55.4882 11.1143 54.9234 12.0853 54.5172 12.879C54.1121 13.6706 53.8475 14.3184 53.7327 14.9157C53.4928 16.1645 53.9345 17.0854 54.6599 18.4441C55.0887 19.2478 55.5694 20.0337 56.001 20.6555C56.2166 20.9661 56.4239 21.2414 56.6096 21.4597C56.7831 21.6637 56.975 21.8631 57.1596 21.9738C57.3185 22.069 57.4832 22.0721 57.6043 22.0506C57.7206 22.0298 57.8218 21.983 57.9004 21.9383C58.0575 21.8489 58.2186 21.713 58.3745 21.5618C58.6924 21.2535 59.0791 20.7918 59.5062 20.2246C60.3645 19.0845 61.4303 17.4575 62.5005 15.6172M88.356 21.1442L87.9245 21.3969M88.356 21.1442C94.683 31.953 97.9166 37.4423 99.9533 40.1929C100.975 41.5723 101.646 42.1921 102.2 42.4693C102.722 42.7311 103.191 42.7155 103.953 42.6255C104.771 42.5291 105.573 42.0886 106.799 40.5821C108.03 39.0679 109.621 36.5622 112.031 32.4788C115.309 26.9251 119.948 19.1889 122.339 15.2845M122.339 15.2845L122.751 15.5366M122.339 15.2845C123.533 13.3367 124.617 11.5237 125.402 10.1724C125.795 9.49622 126.111 8.93849 126.329 8.5383C126.344 8.50981 126.359 8.48222 126.373 8.45553C126.277 8.44923 126.169 8.44315 126.05 8.43735C125.393 8.40529 124.436 8.38343 123.248 8.37275C120.882 8.3515 117.618 8.37473 114.025 8.44757L102.261 10.5878L97.254 15.4779C96.1676 17.3714 95.122 19.0962 94.3083 20.3555C93.8979 20.9907 93.5424 21.5139 93.2682 21.8822C93.1323 22.0648 93.0088 22.2196 92.9039 22.333C92.8524 22.3887 92.7945 22.4464 92.7337 22.4943C92.7032 22.5182 92.6619 22.5478 92.612 22.5735C92.5673 22.5966 92.4808 22.635 92.3678 22.6388C92.1502 22.6461 91.9822 22.5292 91.9155 22.4805C91.8228 22.4129 91.7311 22.3258 91.6446 22.2343C91.4694 22.0491 91.2666 21.7933 91.0509 21.4939C90.6169 20.8916 90.0985 20.0678 89.5966 19.1651L89.5781 19.1319C88.7227 17.5926 88.188 16.6304 88.2944 15.4382C88.3471 14.8483 88.5518 14.2319 88.8826 13.4867C89.2136 12.7415 89.6893 11.8279 90.3091 10.6433C90.425 10.4217 90.5399 10.2007 90.6541 9.98088C91.2165 8.89909 91.7633 7.84724 92.3382 6.90606C93.0308 5.77205 93.7864 4.75999 94.7037 4.01244C94.7399 3.98295 94.78 3.95868 94.8229 3.94032L98.8237 2.22884C98.872 2.20818 98.9233 2.19526 98.9756 2.19056L117.679 0.508072C117.694 0.506732 117.709 0.506061 117.724 0.506061C125.899 0.506061 130.511 0.548855 133.181 0.783181C134.512 0.899994 135.411 1.06769 136.041 1.3263C136.707 1.59978 137.072 1.97429 137.331 2.44902C137.485 2.73128 137.52 3.06661 137.491 3.41925C137.462 3.77532 137.364 4.19509 137.203 4.6843C136.883 5.663 136.286 6.99912 135.364 8.80174C133.519 12.412 130.327 17.976 125.302 26.4551C119.754 35.8164 116.387 41.348 114.035 44.7086C111.684 48.0695 110.3 49.331 108.699 50.067C104.846 51.8388 100.313 51.482 96.6187 49.1368C96.4023 48.9993 96.1382 48.7145 95.8594 48.3792C95.564 48.0241 95.2036 47.5513 94.7889 46.9787C93.9587 45.8323 92.8957 44.2649 91.6747 42.3919C89.2319 38.6448 86.1461 33.6583 83.0059 28.3357C79.871 23.0222 76.867 18.1345 74.5533 14.5411C73.396 12.7437 72.4141 11.2744 71.6764 10.2389C71.3069 9.72018 71.0033 9.31698 70.7723 9.03773C70.6562 8.89748 70.5647 8.79603 70.4966 8.7291C70.4657 8.69867 70.4456 8.68151 70.4353 8.67306C69.82 8.44336 69.2779 8.37602 68.7589 8.46685C68.2286 8.55966 67.676 8.82571 67.0612 9.33792C65.8113 10.3793 64.3962 12.3573 62.5005 15.6172M62.5005 15.6172L62.0824 15.3741" stroke="#333333" stroke-linejoin="round"/>
</g>
<defs>
<filter id="filter0_i_1131_284" x="1" y="1" width="136" height="53" filterUnits="userSpaceOnUse" color-interpolation-filters="sRGB">
<feFlood flood-opacity="0" result="BackgroundImageFix"/>
<feBlend mode="normal" in="SourceGraphic" in2="BackgroundImageFix" result="shape"/>
<feColorMatrix in="SourceAlpha" type="matrix" values="0 0 0 0 0 0 0 0 0 0 0 0 0 0 0 0 0 0 127 0" result="hardAlpha"/>
<feOffset dy="3"/>
<feGaussianBlur stdDeviation="2.5"/>
<feComposite in2="hardAlpha" operator="arithmetic" k2="-1" k3="1"/>
<feColorMatrix type="matrix" values="0 0 0 0 0.2 0 0 0 0 0.2 0 0 0 0 0.2 0 0 0 0.5 0"/>
<feBlend mode="normal" in2="shape" result="effect1_innerShadow_1131_284"/>
</filter>
</defs>
</svg>
