<svg width="238" height="184" viewBox="0 0 238 184" fill="none" xmlns="http://www.w3.org/2000/svg">
<g style="mix-blend-mode:hard-light">
<path fill-rule="evenodd" clip-rule="evenodd" d="M224.311 0.93666C224.617 1.4656 224.441 2.44791 223.919 3.11877C222.553 4.87792 222.523 9.89 223.8 23.473C225.202 38.382 224.653 50.1174 221.925 63.5584C221.359 66.346 220.862 69.0414 220.821 69.5482C220.489 73.6213 214.557 87.8622 211.188 92.6725C210.09 94.2409 209.191 95.8553 209.191 96.2599C209.191 99.3138 194.981 114.15 188.217 118.158C186.72 119.044 185.877 119.777 186.345 119.784C187.826 119.809 184.673 121.585 183.122 121.599C182.305 121.607 179.588 122.584 177.084 123.77C172.184 126.089 167.173 126.274 147.512 124.864C137.646 124.157 134.823 123.594 135.476 122.464C135.73 122.025 134.95 121.403 133.745 121.08C131.67 120.523 130.576 117.927 132.416 117.927C132.89 117.927 133.278 117.513 133.278 117.006C133.278 116.499 131.823 116.078 130.044 116.07C127.709 116.06 127.162 115.817 128.078 115.198C129.196 114.443 129.196 114.285 128.078 113.87C118.956 110.491 118.601 110.082 116.888 110.082C115.76 110.082 115.728 108.264 116.026 107.75C116.319 107.243 115.555 107.772 118.017 107.75C120.48 107.728 124.048 107.112 125.946 106.382C127.844 105.652 131.46 105.047 133.982 105.04C140.18 105.022 143.1 103.47 140.131 101.773C138.147 100.639 138.226 100.568 142.143 99.9404C144.384 99.5819 146.218 98.9203 146.218 98.4706C146.218 98.0218 147.322 97.6541 148.671 97.6541C151.541 97.6541 156.605 93.5682 154.726 92.7702C154.079 92.4955 154.619 92.2375 155.923 92.1979C158.615 92.1149 159.028 90.8119 156.786 89.4712C155.161 88.4999 158.295 86.6136 161.586 86.5822C163.915 86.5592 166.069 84.8037 163.902 84.6941C162.953 84.6471 162.64 84.4066 163.207 84.1596C163.773 83.9136 164.023 83.1174 163.762 82.3894C163.47 81.5785 163.823 81.067 164.673 81.067C166.451 81.067 166.439 80.1843 164.639 78.779C163.446 77.8473 163.954 77.5764 167.808 77.0889C172.474 76.4982 175.91 74.6165 172.321 74.6165C171.305 74.6165 170.234 74.2018 169.941 73.695C169.648 73.1882 170.147 72.7735 171.05 72.7735C173.247 72.7735 176.115 69.48 174.522 68.7843C173.777 68.4581 174.028 68.0821 175.259 67.6803C176.286 67.3449 177.361 66.0732 177.648 64.8541C177.979 63.446 178.792 62.6369 179.878 62.6369C180.821 62.6369 181.587 62.0186 181.587 61.2547C181.587 60.4944 182.039 59.8724 182.593 59.8724C183.146 59.8724 183.359 59.6153 183.065 59.302C182.411 58.6026 184.561 56.1864 185.838 56.1864C187.585 56.1864 186.761 53.6366 184.821 53.0404C183.02 52.4875 183.123 52.3069 186.243 50.5376C188.798 49.088 189.316 48.4347 188.4 47.8154C187.433 47.1612 187.493 46.9972 188.703 46.9852C190.856 46.9649 190.571 45.4601 188.272 44.7109C186.36 44.088 186.366 44.0622 188.724 42.9361C190.04 42.3076 190.9 41.5612 190.635 41.2783C190.37 40.9954 191.428 40.4333 192.986 40.0297L195.82 39.2952L193.232 38.8345L190.644 38.3746L193.151 37.8346C195.929 37.2375 196.983 34.3126 194.75 33.3976C193.657 32.9488 193.782 32.6816 195.385 32.0485C197.272 31.303 197.296 31.1906 195.827 30.0424C194.397 28.9255 194.493 28.779 196.992 28.2445C198.49 27.9248 199.625 27.3424 199.515 26.9498C199.404 26.5582 200.364 25.0451 201.648 23.5872C202.933 22.1294 203.771 20.5712 203.512 20.1242C203.254 19.6764 203.94 18.9253 205.038 18.4554C206.609 17.7827 206.702 17.5873 205.474 17.5412C203.329 17.4611 204.548 15.6402 206.746 15.6402C207.963 15.6402 208.359 15.2089 208.016 14.2579C207.718 13.4258 208.012 12.8757 208.756 12.8757C210.265 12.8757 212.075 9.52415 211.294 8.17506C210.984 7.63875 211.554 6.58178 212.562 5.82799C213.571 5.07328 214.172 4.06978 213.899 3.59797C213.626 3.12523 214.036 2.73912 214.809 2.73912C215.582 2.73912 216.798 2.1171 217.51 1.35686C218.989 -0.22352 223.479 -0.500887 224.311 0.93666ZM35.019 20.9527C36.0352 30.3013 40.6633 44.4934 44.1225 48.8687C44.7471 49.6594 46.1385 52.0184 47.2142 54.1112C49.9428 59.419 64.581 77.381 66.1786 77.381C66.8049 77.381 75.5961 84.8756 78.0693 87.5176C79.4115 88.9514 86.6819 93.9681 87.4177 93.9681C87.8965 93.9681 89.3863 94.9016 90.7268 96.0415C92.0683 97.1814 94.7183 98.9442 96.6161 99.9579C98.5139 100.972 100.843 102.556 101.792 103.478L103.517 105.155L101.792 106.531C100.779 107.339 98.997 107.734 97.4788 107.488C95.0133 107.087 86.6664 111.134 85.3836 113.351C83.2486 117.042 61.9594 119.239 50.896 116.91C40.7918 114.783 41.2585 114.944 43.1339 114.23C44.3942 113.751 43.6403 113.393 40.3277 112.9C37.8364 112.529 35.9981 111.879 36.2431 111.456C36.4881 111.033 35.8083 110.553 34.7344 110.39C33.6595 110.228 32.7805 109.472 32.7805 108.712C32.7805 107.036 30.9353 105.633 29.7543 106.413C29.2833 106.724 28.8986 106.573 28.8986 106.079C28.8986 105.585 29.3842 104.971 29.9769 104.715C30.6213 104.437 30.447 104.221 29.5456 104.177C28.2352 104.114 27.5899 102.517 27.9341 100.188C28.0239 99.5791 25.2953 99.0862 23.507 99.3884C23.1516 99.4483 22.8601 99.0825 22.8601 98.5756C22.8601 98.0688 23.4423 97.6541 24.154 97.6541C24.8657 97.6541 25.448 97.2394 25.448 96.7326C25.448 96.2258 24.8657 95.8111 24.154 95.8111C23.4423 95.8111 22.8601 95.4305 22.8601 94.9661C22.8601 94.5017 21.7921 93.7055 20.4878 93.1959C18.5995 92.4596 18.4675 92.2495 19.8408 92.1684C21.5437 92.068 21.5437 92.0486 19.8917 90.7134C18.9704 89.9697 18.6797 89.3606 19.2447 89.3606C21.0149 89.3606 20.3644 87.7617 18.3312 87.1176L16.3902 86.5021L18.5261 85.5806C20.1626 84.8738 20.3851 84.4757 19.4794 83.8776C18.678 83.3487 18.4683 82.1756 18.8315 80.2386C19.262 77.9404 19.0748 77.3672 17.8783 77.3082C16.9777 77.264 16.8164 77.052 17.4685 76.771C18.7228 76.2301 18.9376 73.695 17.7291 73.695C17.2788 73.695 15.9115 72.7053 14.69 71.4963L12.4686 69.2976L14.721 68.694C16.605 68.189 16.7983 67.8637 15.902 66.7109C14.4036 64.7813 13.8679 57.9188 15.1506 57.072C16.6249 56.0989 15.3309 54.3498 13.1044 54.3065C11.355 54.2724 11.3886 54.1683 13.5599 52.9095C15.5871 51.7346 15.795 51.2388 15.0911 49.2604C14.3786 47.2589 14.5174 46.9575 16.1961 46.8626C17.723 46.776 17.5867 46.6092 15.5276 46.0498C14.1042 45.6628 13.4478 45.297 14.0689 45.2371C14.69 45.1772 14.9582 44.7137 14.6649 44.2068C14.3716 43.7 14.9082 43.2853 15.8571 43.2853C17.7584 43.2853 19.3301 41.481 17.5194 41.3778C16.8983 41.3419 17.1666 40.9705 18.1155 40.5531C19.7623 39.8278 19.7442 39.7523 17.7196 38.9137C15.6811 38.0678 15.726 38.0079 18.8695 37.3785C21.3125 36.8882 22.0138 36.3676 21.6386 35.3208C21.3616 34.5504 21.1348 33.7459 21.1348 33.534C21.1348 33.322 20.1876 33.1488 19.0291 33.1488C17.8705 33.1488 16.6835 32.7341 16.3902 32.2273C16.0969 31.7204 16.31 31.3058 16.863 31.3058C17.4159 31.3058 17.6557 30.7114 17.3944 29.9852C17.0709 29.0858 17.7291 28.4749 19.4587 28.0685C22.1053 27.4483 22.7695 26.2633 20.9191 25.4653C20.3265 25.21 20.7371 24.9677 21.8327 24.928C22.9282 24.8884 23.6037 24.4737 23.3336 24.0074C23.0645 23.5412 23.8254 22.3349 25.0262 21.3259C26.5039 20.0846 26.855 19.34 26.1122 19.0212C25.4204 18.7235 25.5567 18.5236 26.4832 18.4775C27.2897 18.4379 28.2602 17.8868 28.6398 17.2528C31.5874 12.3311 34.2495 13.8746 35.019 20.9527ZM237.882 69.3178C238.112 70.9655 237.996 72.5229 237.621 72.78C237.248 73.0361 236.336 76.5609 235.596 80.6127C234.855 84.6637 233.674 89.9577 232.97 92.3776C232.266 94.7974 231.895 97.3472 232.145 98.0439C232.395 98.7406 232.186 99.5847 231.679 99.9192C231.172 100.254 230.757 101.681 230.757 103.091C230.757 104.501 230.146 107.69 229.399 110.178C228.652 112.666 227.86 116.153 227.639 117.927C227.418 119.701 226.821 122.811 226.313 124.839C225.804 126.866 224.881 131.842 224.261 135.897C222.098 150.034 220.466 154.457 217.943 153.019C217.162 152.574 215.359 152.064 213.936 151.887C211.07 151.527 211.518 150.514 207.356 166.767C204.001 179.868 203.674 180.786 201.906 182.022C199.247 183.88 193.5 184.584 190.157 183.46C176.858 178.99 172.541 177.021 172.798 175.542C173.091 173.851 169.944 170.453 168.086 170.453C167.449 170.453 165.47 169.063 163.689 167.364C161.909 165.666 159.368 163.995 158.044 163.651C156.696 163.302 155.881 162.606 156.19 162.07C156.495 161.544 155.928 160.886 154.932 160.608C153.934 160.329 153.119 159.735 153.119 159.287C153.119 158.84 151.59 158.473 149.72 158.473C147.849 158.473 146.08 158.059 145.787 157.552C145.494 157.045 145.859 156.63 146.599 156.63C147.338 156.63 147.943 156.188 147.943 155.648C147.943 155.107 146.875 154.797 145.571 154.957C144.267 155.117 143.288 155.741 143.397 156.344C143.506 156.947 142.882 157.681 142.011 157.977C141.14 158.273 139.785 160.06 139 161.949C136.933 166.93 132.7 175.334 131.583 176.673C129.151 179.59 107.83 174.823 107.83 171.362C107.83 170.461 106.795 169.901 104.811 169.726C99.9787 169.301 99.104 168.768 100.918 167.35C102.484 166.127 101.307 164.825 98.3802 164.542C97.9273 164.499 97.3278 163.427 97.0474 162.159C96.4522 159.464 94.0299 159.035 94.0247 161.623C94.0221 162.595 93.5002 163.576 92.8645 163.803C91.3523 164.341 86.6155 172.334 87.2047 173.352C87.4557 173.785 87.2487 174.139 86.7466 174.139C86.2445 174.139 85.8331 174.786 85.8331 175.576C85.8331 176.365 85.4863 176.784 85.0627 176.504C84.6383 176.223 84.056 176.925 83.767 178.062C82.8285 181.763 79.3503 183.699 76.5545 182.076C71.2647 179.007 67.1568 177.047 64.8648 176.5C63.2672 176.118 62.4934 175.382 62.5917 174.339C62.9299 170.738 62.4865 169.531 60.8233 169.531C59.8787 169.531 58.621 168.702 58.0283 167.688C57.4357 166.675 56.2418 165.845 55.3748 165.845C54.1913 165.845 53.9351 165.387 54.3466 164.002C54.7684 162.582 54.5018 162.159 53.1811 162.159C50.5552 162.159 48.7394 161.177 48.7394 159.757C48.7394 159.051 48.3512 158.473 47.8767 158.473C47.4023 158.473 47.0141 158.059 47.0141 157.552C47.0141 157.045 47.6533 156.63 48.434 156.63C49.5175 156.63 49.313 156.095 47.5714 154.371C46.3162 153.128 45.2888 151.663 45.2888 151.114C45.2888 149.613 41.3181 150.485 39.3098 152.427C38.3385 153.366 36.7012 156.929 35.6712 160.346C32.8736 169.623 32.0127 170.465 26.9542 168.871C23.2379 167.7 22.9023 167.368 23.3811 165.33C23.8599 163.295 23.6459 163.081 21.1356 163.081C19.0248 163.081 18.4813 162.751 18.8591 161.699C19.1964 160.759 18.8125 160.316 17.6575 160.316C16.7232 160.316 15.9589 159.902 15.9589 159.395C15.9589 158.888 16.5412 158.473 17.2529 158.473C19.6864 158.473 18.6512 155.714 16.1746 155.6L13.8023 155.491L16.3902 154.787L18.9782 154.084L16.6059 153.975C15.3016 153.915 14.2336 153.456 14.2336 152.955C14.2336 152.454 13.5806 151.23 12.7835 150.234C10.5838 147.49 10.557 144.925 12.7119 143.312C14.0654 142.299 14.2336 141.886 13.2925 141.886C12.5635 141.886 11.4412 140.452 10.7977 138.7C9.95836 136.415 8.93613 135.351 7.18582 134.941C4.20798 134.242 3.95523 132.671 6.82007 132.671C8.47117 132.671 8.80414 132.294 8.44528 130.828C8.19684 129.815 7.43427 128.985 6.74933 128.985C6.06525 128.985 5.74521 128.571 6.03851 128.064C6.33181 127.557 5.76246 127.142 4.77387 127.142C0.680623 127.142 0.855746 121.001 4.9904 119.529C6.53712 118.979 3.92503 115.169 1.91075 115.037L0 114.912L1.93922 114.513C3.50579 114.191 3.71886 113.795 3.04772 112.455C2.59139 111.544 2.4292 110.571 2.688 110.294C2.94679 110.018 2.72596 108.927 2.1963 107.87C1.41474 106.309 1.48202 105.948 2.55774 105.948C4.30286 105.948 4.258 104.456 2.49045 103.731C1.38368 103.278 1.31122 102.889 2.13332 101.83C2.70267 101.099 2.95542 100.132 2.69576 99.6842C2.43697 99.2354 3.30479 98.0154 4.6255 96.9722C7.05988 95.05 10.1102 96.9317 8.65059 99.4557C8.39439 99.8989 8.56002 100.4 9.01894 100.571C9.47701 100.74 10.4923 103.575 11.273 106.869C12.0546 110.164 12.9707 113.274 13.308 113.78C13.6462 114.287 14.4389 116.451 15.0695 118.588C15.7001 120.725 16.5723 122.238 17.0079 121.951C17.4435 121.664 17.6877 121.988 17.5505 122.673C17.1865 124.492 19.5044 132.671 20.3843 132.671C20.7966 132.671 21.1348 133.301 21.1348 134.07C21.1348 136.265 25.5368 144.701 26.3891 144.138C26.8092 143.861 26.9343 144.244 26.666 144.992C26.0165 146.799 27.7728 150.18 29.3601 150.18C30.0554 150.18 30.6239 149.765 30.6239 149.258C30.6239 148.752 30.2805 148.337 29.8621 148.337C29.4429 148.337 28.9141 147.3 28.6872 146.033C28.4603 144.766 28.6096 143.729 29.0185 143.729C30.3659 143.729 33.2118 140.076 33.2118 138.346C33.2118 137.175 34.2444 136.319 36.5468 135.581C41.5717 133.973 42.9234 134.242 46.2843 137.509C50.3905 141.501 67.74 158.671 68.9408 159.929C69.4627 160.478 70.4254 160.735 71.0801 160.502C71.7815 160.252 72.0316 160.492 71.6883 161.085C71.3674 161.639 71.8953 162.936 72.8624 163.969C74.9405 166.189 77.6328 166.519 76.8943 164.463C76.6218 163.703 76.8711 163.048 77.449 163.008C78.2418 162.954 78.2332 162.82 77.4171 162.469C75.8091 161.776 76.9271 160.468 80.5002 158.86C83.3961 157.557 83.5419 157.325 82.153 156.228C80.7504 155.118 80.8349 154.932 83.2201 153.877C84.6452 153.247 85.5993 152.364 85.3396 151.916C85.0808 151.468 85.3767 151.072 85.9978 151.037C86.6189 151.001 86.3506 150.634 85.4017 150.22C83.8274 149.536 83.8913 149.41 86.1307 148.781C87.5307 148.388 88.1752 147.823 87.6308 147.463C86.3325 146.606 89.7952 143.342 93.3501 142.073C96.4513 140.967 97.5089 141.776 104.319 150.464C106.251 152.929 108.476 154.819 109.495 154.86C110.522 154.902 110.798 155.139 110.144 155.419C108.207 156.246 118.66 163.026 121.92 163.055C125.489 163.087 125.225 161.02 121.562 160.244C119.459 159.799 119.86 159.591 124.005 158.986C128.427 158.34 128.965 158.028 128.965 156.118C128.965 154.939 129.353 153.718 129.828 153.405C131.343 152.405 130.76 151.32 128.363 150.677C125.371 149.875 127.255 148.372 131.276 148.351C132.784 148.343 134.59 147.726 135.288 146.979C137.649 144.458 152.257 142.367 152.257 144.551C152.257 145.003 153.325 145.655 154.629 146.002C156.957 146.619 168.806 154.599 169.36 155.922C169.733 156.812 176.71 161.842 181.587 164.735C183.722 166.002 185.779 167.6 186.159 168.286C186.862 169.556 191.195 170.019 192.213 168.932C192.521 168.602 192.1 167.785 191.277 167.118C189.899 165.999 189.933 165.902 191.723 165.875C192.83 165.858 193.664 165.272 193.664 164.509C193.664 163.774 194.335 162.771 195.154 162.281C196.473 161.493 196.369 161.255 194.253 160.225L191.86 159.06L194.271 158.005L196.683 156.95L194.311 156.312C191.454 155.544 191.161 153.871 193.879 153.852C194.947 153.844 195.432 153.533 194.958 153.161C193.042 151.658 193.589 148.67 196.007 147.421C198.112 146.334 198.202 146.131 196.734 145.775C195.344 145.439 195.526 145.16 197.803 144.138C199.714 143.279 200.39 142.471 200.032 141.474C199.749 140.687 199.947 140.043 200.472 140.043C200.998 140.043 201.427 139.201 201.427 138.172C201.427 137.142 202.01 136.061 202.721 135.769C203.433 135.477 204.015 134.849 204.015 134.371C204.015 132.289 208.699 129.182 210.647 129.972C213.181 131.002 214.319 129.136 212.178 127.463C210.707 126.315 210.778 126.213 213.124 126.124C215.506 126.034 215.45 125.958 212.21 124.888L208.76 123.749L212.21 122.991C214.207 122.551 215.025 122.073 214.151 121.855C213.321 121.647 212.642 121.076 212.642 120.584C212.642 120.092 213.321 119.812 214.151 119.96C215.201 120.148 215.746 119.529 215.938 117.927C216.09 116.66 216.792 115.145 217.498 114.561C218.604 113.645 218.52 113.304 216.881 112.077L214.981 110.657L217.262 110.046C220.421 109.199 220.119 107.819 216.739 107.652L213.936 107.514L216.521 107.109C219.696 106.61 220.552 105.327 219.904 102.031C219.52 100.081 219.732 99.4971 220.82 99.4971C221.597 99.4971 221.991 99.0797 221.696 98.5692C221.4 98.0586 221.763 97.3933 222.503 97.0902C223.242 96.787 223.667 96.2295 223.447 95.8508C223.228 95.4711 223.606 94.3745 224.287 93.4124C226.142 90.7963 225.836 89.3606 223.425 89.3606C222.239 89.3606 221.268 88.9459 221.268 88.4391C221.268 87.9322 222.153 87.5176 223.236 87.5176C225.521 87.5176 228.071 82.1415 226.33 80.9915C225.706 80.5796 225.933 80.0137 226.987 79.3595C228.539 78.3974 228.534 78.3551 226.875 78.2657L225.15 78.1726L226.875 77.381C227.824 76.9451 228.116 76.56 227.522 76.524C226.014 76.4337 226.173 72.3183 227.738 70.9305C228.45 70.2992 229.038 70.1453 229.045 70.5877C229.053 71.0291 229.408 70.8015 229.835 70.0809C230.47 69.0082 234.549 66.9063 236.914 66.4326C237.216 66.3727 237.651 67.6702 237.882 69.3178Z" fill="#89FF13"/>
</g>
</svg>
