<svg width="217" height="200" viewBox="0 0 217 200" fill="none" xmlns="http://www.w3.org/2000/svg">
<path fill-rule="evenodd" clip-rule="evenodd" d="M203.74 0.989319C204.017 1.56025 197.694 8.05255 201.694 16.8599C201.694 16.8599 198.108 29.7907 201.194 36.5526C202.46 52.6449 204.05 54.0736 201.585 68.5815C201.074 71.5903 200.625 74.4997 200.588 75.0467C200.288 79.4431 194.929 94.8143 191.886 100.006C190.894 101.699 190.082 103.442 190.082 103.879C190.082 107.175 177.245 123.189 171.135 127.514C169.783 128.471 169.021 129.262 169.444 129.27C170.782 129.297 167.933 131.213 166.532 131.229C165.794 131.237 163.339 132.292 161.077 133.572C156.651 136.075 158.607 138 142.607 134C142.607 134 134.018 138.5 128.107 131C128.336 130.527 128.018 131 126.607 129C124.733 128.399 123.607 129 123.607 129C124.035 129 121 128.047 121 127.5C121 126.953 121 125 121 125L122.5 121.5L117.607 122L118.607 119.5H116V117.053C116 117.053 112.731 115.555 113 115C113.265 114.453 116 114 116 114C116 114 118.392 113.289 120.107 112.5C121.821 111.712 122.328 112.008 124.607 112C134.465 112.644 126.107 109.5 126.107 109.5C124.314 108.276 126.568 107.677 130.107 107C132.131 106.613 133.607 105.485 133.607 105C133.607 104.516 135.388 103.5 136.607 103.5C139.199 103.5 140.694 100.805 140.694 100.805C140.109 100.509 140.783 99.5369 141.961 99.4941C144.394 99.4046 144.766 97.9982 142.741 96.551C141.273 95.5026 144.104 93.4666 147.077 93.4328C149.181 93.4079 149.17 91.3947 149.17 91.3947C148.313 91.344 148.03 91.0844 148.542 90.8179C149.053 90.5523 149.279 89.6929 149.043 88.9071C148.779 88.0318 149.098 87.4798 149.866 87.4798C151.473 87.4798 151.461 86.527 149.835 85.0101C149.835 85.0101 149.217 83.7121 152.698 83.1859C156.914 82.5483 160.017 80.5173 156.775 80.5173C155.857 80.5173 154.89 80.0697 154.625 79.5226C154.36 78.9756 154.811 78.528 155.627 78.528C157.612 78.528 160.202 74.9731 158.764 74.2222C158.09 73.8701 158.317 73.4642 159.429 73.0306C160.357 72.6685 161.328 71.2959 161.587 69.98C161.886 68.4602 162.621 67.5869 163.601 67.5869C164.454 67.5869 165.145 66.9195 165.145 66.0949C165.145 65.2743 165.554 64.6029 166.054 64.6029C166.554 64.6029 166.746 64.3255 166.481 63.9873C165.89 63.2323 167.832 60.6244 168.986 60.6244C170.564 60.6244 169.819 57.8722 168.067 57.2286C166.44 56.6318 166.533 56.4369 169.352 54.5272C171.66 52.9626 172.127 52.2574 171.3 51.589C170.426 50.8828 170.481 50.7058 171.574 50.6928C173.519 50.6709 173.261 49.0467 171.184 48.238C169.457 47.5656 169.463 47.5378 171.593 46.3223C172.781 45.644 173.558 44.8383 173.319 44.5329C173.08 44.2276 174.036 43.6209 175.443 43.1852L176.694 43.0525L176.194 42.0525L175.443 41.5525L175.592 40.816C175.592 40.816 179.054 37.0144 177.037 36.0267C176.049 35.5423 176.162 35.2539 177.61 34.5706C179.315 33.7659 179.336 33.6446 178.009 32.4052C176.717 31.1997 176.804 31.0416 179.062 30.4647C180.415 30.1195 181.441 29.4909 181.341 29.0672C181.24 28.6445 182.108 27.0113 183.268 25.4377C184.428 23.8642 185.186 22.1822 184.952 21.6998C184.718 21.2164 185.338 20.4058 186.331 19.8985C187.75 19.1724 187.833 18.9616 186.724 18.9118C186.724 18.9118 185.887 16.8599 187.873 16.8599C188.972 16.8599 189.33 16.3944 189.021 15.3679C188.751 14.4698 189.017 13.876 189.689 13.876C191.052 13.876 192.687 10.2584 191.982 8.80225C191.701 8.22337 192.216 7.08251 193.127 6.26889C194.038 5.45427 194.582 4.37112 194.335 3.86186C194.088 3.35161 194.458 2.93484 195.157 2.93484C195.856 2.93484 196.954 2.26346 197.597 1.44287L203.74 0.989319ZM32.7416 22.5941C33.6596 32.6847 37.8404 48.0033 40.9653 52.7259C41.5295 53.5793 42.7865 56.1256 43.7583 58.3844C46.2231 64.1136 59.4467 83.5012 60.89 83.5012C61.4557 83.5012 69.3973 91.5907 71.6315 94.4423C72.8441 95.99 79.4119 101.405 80.0766 101.405C80.5091 101.405 81.8549 102.412 83.0659 103.643C84.2777 104.873 86.6716 106.776 88.386 107.87C90.1004 108.964 92.2045 110.674 93.0617 111.67L94.6203 113.48L93.0617 114.965C92.1468 115.837 90.5368 116.263 89.1653 115.997C86.9381 115.565 81.6068 120.489 78.239 122.326C68.4247 127.68 57.0785 128.681 47.0842 126.168C37.9565 123.872 38.3781 124.046 40.0723 123.275C41.2108 122.758 40.5297 122.372 37.5373 121.839C35.2867 121.439 33.6261 120.738 33.8474 120.281C34.0687 119.825 33.4547 119.307 32.4845 119.13C31.5135 118.955 30.7194 118.14 30.7194 117.319C30.7194 115.51 29.0525 113.996 27.9857 114.838C27.5602 115.173 27.2126 115.011 27.2126 114.477C27.2126 113.943 27.6514 113.281 28.1867 113.004C28.7688 112.705 28.6114 112.471 27.7971 112.425C26.6134 112.356 26.0305 110.632 26.3414 108.119C26.4224 107.461 23.9576 106.929 22.3421 107.255C22.0211 107.32 21.7577 106.925 21.7577 106.378C21.7577 105.831 22.2837 105.383 22.9266 105.383C23.5695 105.383 24.0955 104.936 24.0955 104.389C24.0955 103.842 23.5695 103.394 22.9266 103.394C22.2837 103.394 21.7577 102.983 21.7577 102.482C21.7577 101.981 20.7929 101.121 19.6147 100.571C17.9088 99.7766 17.7896 99.5499 19.0302 99.4623C20.5685 99.3539 20.5685 99.333 19.0762 97.8918C18.2439 97.0891 17.9813 96.4316 18.4917 96.4316C20.0908 96.4316 19.5032 94.7059 17.6665 94.0106L15.9131 93.3463L17.8426 92.3516C19.3209 91.5887 19.5219 91.159 18.7037 90.5135C17.9797 89.9425 17.7904 88.6764 18.1184 86.5856C18.5073 84.105 18.3382 83.4863 17.2573 83.4227C16.4438 83.3749 16.298 83.1461 16.8872 82.8428C18.0203 82.2589 18.2143 79.5226 17.1225 79.5226C16.7157 79.5226 15.4806 78.4544 14.3771 77.1494L12.3705 74.7762L14.4052 74.1247C16.1071 73.5796 16.2817 73.2285 15.472 71.9842C14.1184 69.9014 13.6345 62.4943 14.7933 61.5802C16.125 60.5299 14.9561 58.642 12.9448 58.5953C11.3644 58.5585 11.3948 58.4461 13.3563 57.0874C15.1876 55.8192 15.3754 55.2841 14.7395 53.1486C14.0958 50.9882 14.2213 50.663 15.7377 50.5605C17.1171 50.467 16.9939 50.287 15.1338 49.6832C13.848 49.2655 13.255 48.8706 13.816 48.806C14.3771 48.7413 14.6195 48.241 14.3545 47.6939C14.0896 47.1469 14.5743 46.6993 15.4315 46.6993C17.149 46.6993 18.5689 44.7518 16.9332 44.6404C16.3721 44.6016 16.6144 44.2008 17.4716 43.7502C18.9593 42.9674 18.9429 42.8858 17.114 41.9807C15.2725 41.0676 15.313 41.003 18.1527 40.3236C20.3596 39.7945 20.9932 39.2325 20.6542 38.1026C20.4041 37.271 20.1991 36.4027 20.1991 36.174C20.1991 35.9452 19.3435 35.7582 18.2969 35.7582C17.2503 35.7582 16.178 35.3106 15.9131 34.7635C15.6481 34.2165 15.8406 33.7689 16.3401 33.7689C16.8396 33.7689 17.0563 33.1273 16.8202 32.3435C16.5279 31.3728 17.1225 30.7133 18.685 30.2747C21.0758 29.6053 21.6759 28.3262 20.0043 27.4648C19.4689 27.1893 19.8399 26.9277 20.8296 26.885C21.8192 26.8422 22.4294 26.3946 22.1855 25.8913C21.9424 25.388 22.6297 24.086 23.7144 22.9969C25.0494 21.6571 25.3665 20.8534 24.6956 20.5093C24.0706 20.188 24.1937 19.9722 25.0306 19.9224C25.7593 19.8797 26.636 19.2848 26.9788 18.6005C29.6416 13.2881 32.0465 14.9542 32.7416 22.5941ZM216 74.7981C216.208 76.5765 216.103 78.2575 215.765 78.535C215.427 78.8115 214.604 82.616 213.935 86.9895C213.266 91.3619 212.199 97.0762 211.563 99.6881C210.927 102.3 210.592 105.052 210.818 105.804C211.044 106.556 210.854 107.467 210.396 107.828C209.939 108.189 209.564 109.73 209.564 111.252C209.564 112.774 209.011 116.216 208.337 118.902C207.662 121.587 206.946 125.351 206.747 127.266C206.547 129.18 206.008 132.537 205.549 134.726C205.089 136.914 204.255 142.285 203.695 146.661C201.742 161.921 200.267 166.695 197.988 165.143C197.282 164.662 195.654 164.112 194.368 163.92C191.779 163.533 192.184 162.439 188.424 179.982C185.394 194.123 185.098 195.114 183.501 196.447C181.099 198.454 175.908 199.213 172.887 198C160.874 193.175 156.974 191.049 157.206 189.453C157.471 187.629 154.628 183.961 152.949 183.961C152.373 183.961 150.586 182.461 148.977 180.627C147.369 178.793 145.074 176.99 143.878 176.619C142.66 176.242 141.923 175.491 142.203 174.912C142.478 174.344 141.966 173.634 141.066 173.334C140.165 173.033 139.429 172.392 139.429 171.908C139.429 171.426 138.047 171.03 136.358 171.03C134.668 171.03 133.07 170.583 132.805 170.036C132.54 169.488 132.87 169.041 133.538 169.041C134.206 169.041 134.753 168.563 134.753 167.981C134.753 167.397 133.788 167.062 132.61 167.235C131.432 167.408 130.547 168.081 130.646 168.732C130.745 169.382 130.181 170.175 129.394 170.494C128.607 170.813 127.383 172.743 126.674 174.782C124.806 180.158 120.983 189.229 119.974 190.674C117.777 193.822 98.5167 188.677 98.5167 184.941C98.5167 183.97 97.5815 183.365 95.7892 183.176C91.4237 182.717 90.6335 182.141 92.2723 180.612C93.6867 179.292 92.6238 177.886 89.9797 177.581C89.5705 177.534 89.0289 176.376 88.7757 175.009C88.238 172.099 86.0498 171.636 86.0451 174.43C86.0427 175.479 85.5713 176.538 84.9969 176.782C83.6309 177.363 79.3518 185.991 79.8841 187.09C80.1109 187.557 79.9238 187.939 79.4703 187.939C79.0168 187.939 78.6451 188.637 78.6451 189.49C78.6451 190.342 78.3318 190.794 77.9492 190.491C77.5657 190.189 77.0397 190.946 76.7787 192.173C75.9308 196.168 72.7888 198.258 70.2631 196.506C65.4846 193.194 61.7737 191.078 59.7031 190.487C58.2599 190.075 57.5609 189.281 57.6497 188.155C57.9552 184.268 57.5546 182.966 56.0522 182.966C55.1989 182.966 54.0627 182.071 53.5273 180.977C52.992 179.883 51.9134 178.987 51.1303 178.987C50.0611 178.987 49.8296 178.492 50.2014 176.998C50.5824 175.464 50.3416 175.009 49.1486 175.009C46.7764 175.009 45.136 173.948 45.136 172.416C45.136 171.654 44.7854 171.03 44.3568 171.03C43.9282 171.03 43.5775 170.583 43.5775 170.036C43.5775 169.488 44.1549 169.041 44.8602 169.041C45.839 169.041 45.6543 168.463 44.0809 166.602C42.9471 165.26 42.0189 163.679 42.0189 163.087C42.0189 161.467 38.4319 162.408 36.6177 164.503C35.7403 165.517 34.2612 169.363 33.3307 173.051C30.8035 183.064 30.0258 183.974 25.4561 182.253C22.099 180.99 21.7959 180.63 22.2284 178.431C22.6609 176.234 22.4676 176.003 20.1999 176.003C18.293 176.003 17.8021 175.647 18.1434 174.511C18.4481 173.497 18.1013 173.019 17.0578 173.019C16.2139 173.019 15.5234 172.572 15.5234 172.025C15.5234 171.478 16.0495 171.03 16.6924 171.03C18.8907 171.03 17.9556 168.051 15.7183 167.929L13.5752 167.811L15.9131 167.052L18.2509 166.293L16.1079 166.174C14.9296 166.11 13.9649 165.614 13.9649 165.073C13.9649 164.533 13.375 163.211 12.6549 162.137C10.6678 159.175 10.6436 156.406 12.5902 154.665C13.8129 153.572 13.9649 153.127 13.1147 153.127C12.4562 153.127 11.4424 151.579 10.861 149.687C10.1028 147.221 9.17933 146.073 7.59818 145.63C4.90811 144.876 4.67978 143.18 7.26777 143.18C8.75931 143.18 9.0601 142.773 8.73592 141.191C8.51149 140.097 7.82261 139.201 7.20386 139.201C6.5859 139.201 6.29678 138.754 6.56173 138.207C6.82669 137.66 6.31236 137.212 5.41931 137.212C1.72163 137.212 1.87983 130.584 5.61491 128.994C7.01216 128.401 4.6525 124.289 2.83288 124.146L1.10678 124.011L2.8586 123.581C4.27377 123.232 4.46626 122.806 3.85998 121.359C3.44774 120.376 3.30123 119.325 3.53501 119.027C3.7688 118.729 3.56931 117.551 3.09083 116.41C2.3848 114.725 2.44558 114.335 3.41734 114.335C4.99382 114.335 4.9533 112.725 3.35655 111.943C2.35674 111.454 2.29129 111.034 3.03394 109.891C3.54827 109.101 3.77659 108.058 3.54203 107.575C3.30824 107.09 4.0922 105.773 5.28527 104.647C7.4844 102.573 10.2399 104.604 8.92139 107.328C8.68995 107.806 8.83957 108.347 9.25414 108.532C9.66794 108.715 10.5851 111.774 11.2904 115.33C11.9964 118.886 12.824 122.243 13.1287 122.79C13.4342 123.337 14.1503 125.672 14.72 127.979C15.2897 130.285 16.0775 131.919 16.471 131.609C16.8646 131.299 17.0851 131.649 16.9612 132.388C16.6324 134.352 18.7263 143.18 19.5211 143.18C19.8936 143.18 20.1991 143.859 20.1991 144.69C20.1991 147.059 24.1758 156.164 24.9457 155.557C25.3252 155.258 25.4382 155.672 25.1959 156.478C24.6091 158.429 26.1957 162.078 27.6295 162.078C28.2576 162.078 28.7712 161.631 28.7712 161.084C28.7712 160.537 28.461 160.089 28.0831 160.089C27.7044 160.089 27.2267 158.97 27.0217 157.602C26.8168 156.235 26.9516 155.116 27.321 155.116C28.5382 155.116 31.109 151.172 31.109 149.305C31.109 148.041 32.0418 147.117 34.1217 146.321C38.661 144.586 39.8822 144.875 42.9182 148.402C46.6276 152.711 62.3004 171.243 63.3852 172.602C63.8567 173.194 64.7263 173.471 65.3178 173.219C65.9514 172.95 66.1774 173.208 65.8672 173.849C65.5773 174.447 66.0542 175.847 66.9278 176.962C68.8051 179.358 71.2372 179.714 70.5702 177.495C70.3239 176.675 70.5491 175.968 71.0712 175.925C71.7874 175.866 71.7796 175.722 71.0424 175.343C69.5898 174.595 70.5998 173.183 73.8275 171.448C76.4436 170.041 76.5753 169.791 75.3206 168.606C74.0535 167.409 74.1299 167.208 76.2846 166.069C77.572 165.389 78.4339 164.436 78.1993 163.952C77.9655 163.469 78.2328 163.041 78.7939 163.003C79.355 162.965 79.1126 162.569 78.2554 162.122C76.8332 161.383 76.8909 161.247 78.9139 160.568C80.1787 160.145 80.7608 159.534 80.2691 159.146C79.0963 158.221 82.2243 154.698 85.4357 153.328C88.2372 152.134 89.1926 153.007 95.3442 162.385C97.0898 165.045 99.0996 167.085 100.02 167.13C100.948 167.175 101.197 167.432 100.607 167.733C98.8564 168.626 108.3 175.944 111.245 175.976C114.469 176.01 114.23 173.779 110.921 172.941C109.021 172.46 109.384 172.237 113.128 171.583C117.123 170.886 117.609 170.55 117.609 168.488C117.609 167.216 117.96 165.898 118.388 165.56C119.757 164.48 119.23 163.309 117.065 162.615C114.363 161.749 116.064 160.127 119.697 160.104C121.059 160.096 122.69 159.43 123.321 158.624C125.453 155.903 138.65 153.646 138.65 156.003C138.65 156.49 139.614 157.195 140.793 157.569C142.896 158.235 153.6 166.848 154.1 168.276C154.437 169.237 160.74 174.666 165.145 177.789C167.074 179.156 168.932 180.881 169.275 181.621C169.91 182.993 173.825 183.492 174.744 182.318C175.023 181.962 174.643 181.081 173.899 180.361C172.654 179.153 172.685 179.048 174.302 179.019C175.302 179.001 176.055 178.369 176.055 177.545C176.055 176.751 176.661 175.669 177.402 175.14C178.593 174.29 178.499 174.033 176.587 172.921L174.425 171.664L176.604 170.525L178.782 169.386L176.639 168.697C174.059 167.868 173.794 166.063 176.25 166.042C177.214 166.033 177.652 165.698 177.224 165.296C175.494 163.674 175.988 160.448 178.172 159.1C180.074 157.927 180.155 157.708 178.828 157.324C177.573 156.961 177.737 156.661 179.794 155.556C181.521 154.629 182.131 153.758 181.808 152.682C181.552 151.832 181.731 151.137 182.206 151.137C182.68 151.137 183.068 150.228 183.068 149.117C183.068 148.005 183.594 146.838 184.237 146.524C184.88 146.209 185.406 145.53 185.406 145.015C185.406 142.767 189.638 139.413 191.397 140.267C193.686 141.378 194.714 139.364 192.78 137.558C191.451 136.319 191.516 136.21 193.635 136.113C195.786 136.016 195.736 135.934 192.809 134.779L189.692 133.55L192.809 132.731C194.613 132.257 195.352 131.741 194.563 131.505C193.813 131.281 193.199 130.664 193.199 130.133C193.199 129.602 193.813 129.3 194.563 129.46C195.511 129.663 196.003 128.994 196.177 127.266C196.314 125.898 196.948 124.263 197.586 123.632C198.585 122.644 198.509 122.276 197.028 120.952L195.312 119.418L197.373 118.758C200.227 117.844 199.954 116.355 196.901 116.175L194.368 116.026L196.703 115.589C199.572 115.05 200.345 113.665 199.76 110.108C199.413 108.003 199.604 107.373 200.587 107.373C201.289 107.373 201.645 106.922 201.378 106.371C201.111 105.82 201.439 105.102 202.107 104.775C202.775 104.448 203.159 103.846 202.96 103.437C202.762 103.027 203.104 101.843 203.719 100.805C205.395 97.9813 205.118 96.4316 202.94 96.4316C201.869 96.4316 200.992 95.984 200.992 95.437C200.992 94.8899 201.791 94.4423 202.769 94.4423C204.834 94.4423 207.137 88.6396 205.565 87.3983C205 86.9537 205.206 86.3429 206.158 85.6367C207.56 84.5983 207.556 84.5526 206.057 84.4561L204.499 84.3556L206.057 83.5012C206.914 83.0308 207.178 82.615 206.642 82.5762C205.279 82.4787 205.423 78.0366 206.836 76.5387C207.479 75.8574 208.011 75.6913 208.017 76.1687C208.024 76.6451 208.345 76.3995 208.731 75.6216C209.304 74.4639 212.99 72.1951 215.126 71.6838C215.398 71.6192 215.792 73.0196 216 74.7981Z" fill="#89FF13" stroke="black" stroke-linejoin="round"/>
</svg>
